<?xml version="1.0" encoding="UTF-8"?>
<svg id="Layer_1" xmlns="http://www.w3.org/2000/svg" version="1.1" viewBox="0 0 300 300">
  <!-- Generator: Adobe Illustrator 29.6.1, SVG Export Plug-In . SVG Version: 2.1.1 Build 9)  -->
  <defs>
    <style>
      .st0 {
        fill: #fff;
      }

      .st1 {
        fill: #be0b31;
      }

      .st2 {
        fill: #002768;
      }
    </style>
  </defs>
  <path class="st2" d="M37.07,212.52l13.62-1.51c9.08-1.21,16.95-5.15,23.61-11.8,8.07-8.47,12.11-18.26,12.11-29.36v-16.65c0-12.92,7.17-19.88,21.49-20.88h22.09v21.49c0,1.21,0,3.18,0,5.9,0,2.72-.05,5.65-.15,8.78-.1,3.13-.25,6.1-.45,8.93-.2,2.82-.4,4.84-.6,6.05-.4,3.23-1.01,6.4-1.82,9.53-.8,3.13-1.82,6.1-3.03,8.93,0,.2-.1.3-.3.3-.61,1.61-1.31,3.33-2.12,5.15-.8,1.82-1.71,3.53-2.72,5.15-.2,0-.3.1-.3.3-1.01,1.61-2.07,3.18-3.18,4.69-1.11,1.51-2.27,3.07-3.48,4.69-5.04,5.65-11.05,10.04-18.01,13.17-6.96,3.13-14.58,4.69-22.85,4.69-10.29,0-19.67-2.47-28.15-7.42-8.47-4.95-15.03-11.65-19.67-20.13h13.92Z"/>
  <path class="st1" d="M46.39,212.52l21.63-2.4c14.42-1.92,26.91-8.17,37.49-18.74,12.82-13.46,19.22-29,19.22-46.62v-26.43c0-20.51,11.38-31.56,34.12-33.16h35.08v34.12c0,1.92,0,5.05,0,9.37,0,4.32-.08,8.97-.24,13.94-.16,4.96-.4,9.69-.72,14.18-.31,4.48-.64,7.69-.96,9.61-.64,5.12-1.6,10.17-2.89,15.14-1.28,4.96-2.88,9.69-4.8,14.18,0,.32-.16.48-.48.48-.96,2.56-2.08,5.29-3.37,8.17-1.28,2.88-2.72,5.6-4.32,8.17-.32,0-.48.16-.48.48-1.6,2.56-3.28,5.05-5.05,7.45-1.76,2.4-3.6,4.88-5.53,7.45-8.01,8.97-17.54,15.93-28.6,20.91-11.05,4.96-23.14,7.45-36.28,7.45-16.34,0-31.24-3.93-44.7-11.78-13.46-7.85-23.86-18.5-31.24-31.96h22.11Z"/>
  <path class="st2" d="M56.09,212.73l32.23-3.58c21.48-2.86,40.11-12.18,55.87-27.93,19.1-20.05,28.65-43.22,28.65-69.48v-39.39c0-30.56,16.96-47.04,50.85-49.42h52.29v50.85c0,2.87,0,7.52,0,13.97s-.11,13.36-.36,20.77c-.23,7.4-.59,14.44-1.07,21.13-.47,6.68-.95,11.46-1.43,14.33-.95,7.63-2.38,15.15-4.3,22.56-1.9,7.4-4.3,14.44-7.16,21.13,0,.47-.24.72-.71.72-1.43,3.82-3.1,7.88-5.02,12.18-1.9,4.3-4.05,8.35-6.45,12.18-.47,0-.72.24-.72.72-2.38,3.82-4.89,7.52-7.52,11.1-2.62,3.58-5.37,7.27-8.23,11.1-11.93,13.36-26.14,23.75-42.62,31.16-16.47,7.4-34.49,11.1-54.07,11.1-24.35,0-46.56-5.85-66.61-17.55-20.05-11.71-35.57-27.57-46.56-47.63h32.95Z"/>
  <path class="st0" d="M245.22,65.24c-.34-1.17-4.49-2-6.09-2.62.01-.03.02-.08.03-.11.53-1.46,3.03-4.79,2.37-6.06-1.18-2.29-4.76.65-6.46,1.33-.2.08-.38.14-.57.2-.65-1.43-1.24-5.5-2.6-5.94-2.45-.78-2.91,3.83-3.63,5.5-.04.1-.08.18-.13.27-1.39-.67-2.75-1.61-4.81-2.14-1.26-.33-2.48.47-2.25,1.77.19,1.05,1.91,3.58,2.46,4.96-1.5.54-3.16.82-5.06,1.94-1.12.66-1.42,2.09-.34,2.84.89.62,4.03,1.21,5.35,1.81.04.02.07.04.11.06,0,.02-.01.05-.02.07-.54,1.43-3.1,5.05-2.26,6.26,1.31,1.89,4.53-.77,6.17-1.44.23-.09.46-.18.69-.26.62,1.4,1.38,5.76,2.82,6.02,2.27.41,2.66-3.75,3.34-5.38.1-.23.21-.47.32-.7,1.93.9,5.71,3.77,6.94,1.56.59-1.06-1.74-4.56-2.45-6.14,1.97-.74,6.75-1.37,6.05-3.82Z"/>
  <path class="st0" d="M165.15,120.8c-.25-.88-3.35-1.49-4.52-1.95,0-.02.02-.05.02-.07.4-1.08,2.25-3.55,1.76-4.5-.87-1.7-3.54.48-4.79.99-.15.06-.28.1-.42.15-.48-1.06-.92-4.08-1.93-4.41-1.82-.58-2.16,2.84-2.69,4.09-.03.07-.06.13-.09.2-1.03-.5-2.04-1.19-3.57-1.59-.94-.24-1.84.35-1.67,1.32.14.78,1.42,2.66,1.83,3.68-1.11.4-2.35.61-3.76,1.44-.84.49-1.05,1.55-.25,2.11.66.46,2.99.9,3.97,1.34.03.01.05.03.08.04,0,.02,0,.03-.01.05-.4,1.06-2.3,3.75-1.68,4.65.98,1.41,3.36-.57,4.58-1.07.17-.07.34-.13.51-.19.46,1.04,1.03,4.28,2.1,4.47,1.68.3,1.97-2.78,2.48-3.99.07-.17.17-.34.25-.51,1.44.67,4.23,2.78,5.13,1.15.44-.79-1.3-3.4-1.81-4.56,1.47-.55,5.01-1.02,4.49-2.83Z"/>
  <path class="st0" d="M116.06,156.3c-.17-.59-2.27-1.01-3.06-1.32,0-.01.01-.04.02-.05.27-.73,1.52-2.4,1.19-3.05-.59-1.15-2.39.33-3.24.67-.11.04-.19.06-.29.09-.33-.72-.62-2.75-1.3-2.97-1.23-.39-1.46,1.92-1.82,2.76-.02.05-.04.08-.06.13-.7-.34-1.38-.8-2.42-1.07-.63-.16-1.24.24-1.13.89.09.53.96,1.8,1.23,2.49-.75.27-1.59.41-2.54.97-.56.33-.71,1.05-.17,1.43.45.31,2.02.61,2.69.91.02,0,.03.02.05.03,0,.01,0,.02,0,.03-.27.72-1.56,2.54-1.14,3.14.66.95,2.27-.39,3.1-.72.11-.05.23-.08.35-.12.31.71.69,2.88,1.41,3.01,1.14.21,1.33-1.88,1.68-2.7.05-.12.11-.23.17-.34.97.45,2.86,1.88,3.47.77.3-.54-.87-2.29-1.22-3.08.98-.37,3.39-.69,3.03-1.92Z"/>
</svg>